name rise30.9205peak61.366fall85.3838.mot
datacolumns 19
datarows 15
range 23.38157600000000 23.40491300000000
endheader
time	ground_force1_vx	ground_force1_vy	ground_force1_vz	ground_force1_px	ground_force1_py	ground_force1_pz	ground_force2_vx	ground_force2_vy	ground_force2_vz	ground_force2_px	ground_force2_py	ground_force2_pz	ground_torque1_x	ground_torque1_y	ground_torque1_z	ground_torque2_x	ground_torque2_y	ground_torque2_z	
23.38157600000000	60.64196800000000	732.82438100000002	51.42733100000000	0.36580700000000	0.00000000000000	0.08515300000000	0.00000000000000	0.00000000000000	0.00000000000000	0.00000000000000	0.00000000000000	0.00000000000000	0.00000000000000	26.36292400000000	0.00000000000000	0.00000000000000	0.00000000000000	0.00000000000000	
23.38324500000000	60.07680600000000	735.66712800000005	51.62794700000000	0.36461300000000	0.00000000000000	0.08521000000000	0.00000000000000	0.00000000000000	0.00000000000000	0.00000000000000	0.00000000000000	0.00000000000000	0.00000000000000	26.43669700000000	0.00000000000000	0.00000000000000	0.00000000000000	0.00000000000000	
23.38491400000000	59.51410800000000	738.45199600000001	51.83384700000000	0.36344400000000	0.00000000000000	0.08526700000000	0.00000000000000	0.00000000000000	0.00000000000000	0.00000000000000	0.00000000000000	0.00000000000000	0.00000000000000	26.51582400000000	0.00000000000000	0.00000000000000	0.00000000000000	0.00000000000000	
23.38657700000000	58.95401500000000	741.17678699999999	52.04424100000000	0.36230200000000	0.00000000000000	0.08532400000000	0.00000000000000	0.00000000000000	0.00000000000000	0.00000000000000	0.00000000000000	0.00000000000000	0.00000000000000	26.59981800000000	0.00000000000000	0.00000000000000	0.00000000000000	0.00000000000000	
23.38824900000000	58.39661600000000	743.83921999999995	52.25826800000000	0.36118700000000	0.00000000000000	0.08538100000000	0.00000000000000	0.00000000000000	0.00000000000000	0.00000000000000	0.00000000000000	0.00000000000000	0.00000000000000	26.68814600000000	0.00000000000000	0.00000000000000	0.00000000000000	0.00000000000000	
23.38991400000000	57.84194800000000	746.43694400000004	52.47500900000000	0.36009800000000	0.00000000000000	0.08543800000000	0.00000000000000	0.00000000000000	0.00000000000000	0.00000000000000	0.00000000000000	0.00000000000000	0.00000000000000	26.78022400000000	0.00000000000000	0.00000000000000	0.00000000000000	0.00000000000000	
23.39157500000000	57.29000200000000	748.96755399999995	52.69349000000000	0.35903600000000	0.00000000000000	0.08549500000000	0.00000000000000	0.00000000000000	0.00000000000000	0.00000000000000	0.00000000000000	0.00000000000000	0.00000000000000	26.87543500000000	0.00000000000000	0.00000000000000	0.00000000000000	0.00000000000000	
23.39324300000000	56.74072500000000	751.42860700000006	52.91268800000000	0.35799900000000	0.00000000000000	0.08555100000000	0.00000000000000	0.00000000000000	0.00000000000000	0.00000000000000	0.00000000000000	0.00000000000000	0.00000000000000	26.97312100000000	0.00000000000000	0.00000000000000	0.00000000000000	0.00000000000000	
23.39491400000000	56.19402800000000	753.81763899999999	53.13154800000000	0.35698900000000	0.00000000000000	0.08560700000000	0.00000000000000	0.00000000000000	0.00000000000000	0.00000000000000	0.00000000000000	0.00000000000000	0.00000000000000	27.07259700000000	0.00000000000000	0.00000000000000	0.00000000000000	0.00000000000000	
23.39658500000000	55.64978100000000	756.13217699999996	53.34897900000000	0.35600400000000	0.00000000000000	0.08566200000000	0.00000000000000	0.00000000000000	0.00000000000000	0.00000000000000	0.00000000000000	0.00000000000000	0.00000000000000	27.17315300000000	0.00000000000000	0.00000000000000	0.00000000000000	0.00000000000000	
23.39824700000000	55.10782900000000	758.36976000000004	53.56387300000000	0.35504500000000	0.00000000000000	0.08571700000000	0.00000000000000	0.00000000000000	0.00000000000000	0.00000000000000	0.00000000000000	0.00000000000000	0.00000000000000	27.27405800000000	0.00000000000000	0.00000000000000	0.00000000000000	0.00000000000000	
23.39991400000000	54.56798400000000	760.52795200000003	53.77510600000000	0.35410900000000	0.00000000000000	0.08577100000000	0.00000000000000	0.00000000000000	0.00000000000000	0.00000000000000	0.00000000000000	0.00000000000000	0.00000000000000	27.37456800000000	0.00000000000000	0.00000000000000	0.00000000000000	0.00000000000000	
23.40158400000000	54.03003700000000	762.60435900000004	53.98154900000000	0.35319700000000	0.00000000000000	0.08582400000000	0.00000000000000	0.00000000000000	0.00000000000000	0.00000000000000	0.00000000000000	0.00000000000000	0.00000000000000	27.47392700000000	0.00000000000000	0.00000000000000	0.00000000000000	0.00000000000000	
23.40324700000000	53.49376000000000	764.59664199999997	54.18207600000000	0.35230700000000	0.00000000000000	0.08587700000000	0.00000000000000	0.00000000000000	0.00000000000000	0.00000000000000	0.00000000000000	0.00000000000000	0.00000000000000	27.57137700000000	0.00000000000000	0.00000000000000	0.00000000000000	0.00000000000000	
23.40491300000000	52.95890700000000	766.50253399999997	54.37557100000000	0.35143800000000	0.00000000000000	0.08592900000000	0.00000000000000	0.00000000000000	0.00000000000000	0.00000000000000	0.00000000000000	0.00000000000000	0.00000000000000	27.66615900000000	0.00000000000000	0.00000000000000	0.00000000000000	0.00000000000000	
